# xmcd CD database file
#
# Track frame offsets:
#	150
#	19512
#	27404
#	45671
#	66873
#	88150
#	92664
#	112977
#	131357
#	148968
#	153280
#	172942
#	194091
#	223922
#
# Disc length: 4440 seconds
#
# Revision: 1
# Processed by: cddbd v1.5.1PL2 Copyright (c) Steve Scherf et al.
# Submitted via: CDex 1.51
#
DISCID=c411560e
DTITLE=Neville Brothers - Walkin' In The Shadow Of Life
DYEAR=2004
DGENRE=Funk
TTITLE0=Walkin' In The Shadow Of Life
TTITLE1=Poppa Funk 
TTITLE2=Can't Stop The Funk 
TTITLE3=Ball Of Confusion (That's What The World Is Today)
TTITLE4=Kingdom Come
TTITLE5=Middle Passage
TTITLE6=Junkie Child (ft. B.G.)
TTITLE7=Streets Are Callin'
TTITLE8=Your Life (Fallen Soldiers)
TTITLE9=Scrape Scat
TTITLE10=Carry The Torch
TTITLE11=Brothers
TTITLE12=Rivers Of Babylon
TTITLE13=Data -
EXTD=YEAR: 2004
EXTT0=
EXTT1=
EXTT2=
EXTT3=
EXTT4=
EXTT5=
EXTT6=
EXTT7=
EXTT8=
EXTT9=
EXTT10=
EXTT11=
EXTT12=
EXTT13=
PLAYORDER=
